<?xml version="1.0" encoding="utf-8"?>
<!-- Generator: Adobe Illustrator 24.2.1, SVG Export Plug-In . SVG Version: 6.00 Build 0)  -->
<svg version="1.1" id="图层_1" xmlns="http://www.w3.org/2000/svg" xmlns:xlink="http://www.w3.org/1999/xlink" x="0px" y="0px"
	 viewBox="0 0 32 32" style="enable-background:new 0 0 32 32;" xml:space="preserve">
<style type="text/css">
	.st0{fill:#657386;}
	.st1{fill:#FFFFFF;}
</style>
<path class="st0" d="M24.88,8.25l-5.54-4.82H5.84v25.71h20.89V9.85L24.88,8.25z M24.32,9.85H20.3V6.32L24.32,9.85z M7.44,27.53V5.03
	h11.25v6.43h6.43v16.07H7.44z"/>
<rect x="10" y="10" class="st0" width="6" height="1"/>
<g>
	<rect x="13.94" y="16.81" class="st1" width="12.79" height="12.41"/>
</g>
<path class="st0" d="M16.22,26.9v2.3h2.24l5.82-6.44l-2.24-2.29L16.22,26.9z M26.06,20.92c0.22-0.23,0.22-0.69,0-0.92l-1.34-1.38
	c-0.23-0.23-0.68-0.23-0.89,0L22.48,20l2.24,2.3L26.06,20.92z M20.69,28.28L19.8,29.2h7.16v-0.92H20.69z"/>
<rect x="10" y="14" class="st0" width="12" height="1"/>
<rect x="10" y="18" class="st0" width="10" height="1"/>
<rect x="10" y="22" class="st0" width="6" height="1"/>
</svg>
