<?xml version="1.0" encoding="utf-8"?>
<!-- Generator: Adobe Illustrator 22.0.0, SVG Export Plug-In . SVG Version: 6.00 Build 0)  -->
<svg version="1.1" id="图层_1" xmlns="http://www.w3.org/2000/svg" xmlns:xlink="http://www.w3.org/1999/xlink" x="0px" y="0px"
	 width="32px" height="32px" viewBox="0 0 32 32" style="enable-background:new 0 0 32 32;" xml:space="preserve">
<style type="text/css">
	.st0{fill:#4D82B8;}
</style>
<path class="st0" d="M13.8,23c-2.3,0-4.6-0.9-6.3-2.6C4,16.9,4,11.3,7.5,7.8c3.5-3.5,9.1-3.5,12.6,0c3.5,3.5,3.5,9.1,0,12.6
	C18.3,22.2,16.1,23,13.8,23z M13.8,7c-1.8,0-3.6,0.7-5,2.1c-2.8,2.8-2.8,7.2,0,10c2.8,2.8,7.2,2.8,10,0c2.8-2.8,2.8-7.2,0-10
	C17.4,7.7,15.6,7,13.8,7z"/>
<path class="st0" d="M26.1,27.3c-0.2,0-0.5-0.1-0.7-0.3l-6.3-6.3c-0.4-0.4-0.4-1,0-1.3s1-0.4,1.3,0l6.3,6.3c0.4,0.4,0.4,1,0,1.3
	C26.5,27.2,26.3,27.3,26.1,27.3z"/>
</svg>
