<?xml version="1.0" encoding="utf-8"?>
<!-- Generator: Adobe Illustrator 22.0.0, SVG Export Plug-In . SVG Version: 6.00 Build 0)  -->
<svg version="1.1" id="图层_1" xmlns="http://www.w3.org/2000/svg" xmlns:xlink="http://www.w3.org/1999/xlink" x="0px" y="0px"
	 width="32px" height="32px" viewBox="0 0 32 32" style="enable-background:new 0 0 32 32;" xml:space="preserve">
<style type="text/css">
	.st0{display:none;fill:#4D82B6;}
	.st1{display:none;fill:#657386;}
	.st2{fill:#4D82B6;}
	.st3{fill:#657386;}
</style>
<path class="st0" d="M25,18.4c0.2-0.8,0.3-2.6,0.2-3.5c-0.4-6-7.3-9-12.2-7.8c3.7,1.3,7.4,4.7,7.4,8.8c0,0.5,0,1-0.1,1.5l-3.9-0.4
	l2.6,3l2.6,3l3.3-2.1l3.3-2.1L25,18.4z"/>
<path class="st0" d="M7,13.9c-0.2,0.8-0.3,2.6-0.3,3.5c0.3,6.1,7.1,9.2,12,8.1c-3.6-1.4-7.3-4.9-7.2-9c0-0.5,0.1-1,0.1-1.5l3.9,0.5
	l-2.5-3l-2.5-3l-3.3,2l-3.3,2L7,13.9z"/>
<path class="st0" d="M16.1,8.3L5.5,13.6c-2,1-2,3.8,0,4.8l10.7,5.3c1.3,0.7,2.9,0.1,3.6-1.2c0.2-0.4,0.3-0.8,0.3-1.2V10.7
	C20,9.2,18.8,8,17.3,8C16.9,8,16.5,8.1,16.1,8.3L16.1,8.3z"/>
<rect x="23" y="8" class="st1" width="2" height="16"/>
<path class="st0" d="M16.9,8.3C16.5,8.1,16.1,8,15.7,8C14.2,8,13,9.2,13,10.7v10.7c0,0.4,0.1,0.8,0.3,1.2c0.7,1.3,2.3,1.9,3.6,1.2
	l10.7-5.3c2-1,2-3.8,0-4.8L16.9,8.3L16.9,8.3z"/>
<rect x="8" y="8" transform="matrix(-1 -4.547486e-11 4.547486e-11 -1 18 32.0095)" class="st1" width="2" height="16"/>
<path class="st2" d="M17,10.6c-0.3-0.1-0.5-0.2-0.8-0.2c-1,0-1.9,0.8-1.9,1.9l0,7.5c0,0.3,0.1,0.6,0.2,0.8c0.5,0.9,1.6,1.3,2.5,0.8
	l7.5-3.8c1.4-0.7,1.4-2.7,0-3.4L17,10.6L17,10.6z"/>
<rect x="27" y="8.1" class="st3" width="2" height="16"/>
<path class="st2" d="M7.6,10.6c-0.3-0.1-0.5-0.2-0.8-0.2c-1,0-1.9,0.8-1.9,1.9l0,7.5c0,0.3,0.1,0.6,0.2,0.8c0.5,0.9,1.6,1.3,2.5,0.8
	l7.5-3.8c1.4-0.7,1.4-2.7,0-3.4L7.6,10.6L7.6,10.6z"/>
</svg>
