<?xml version="1.0" encoding="utf-8"?>
<!-- Generator: Adobe Illustrator 22.0.0, SVG Export Plug-In . SVG Version: 6.00 Build 0)  -->
<svg version="1.1" id="图层_1" xmlns="http://www.w3.org/2000/svg" xmlns:xlink="http://www.w3.org/1999/xlink" x="0px" y="0px"
	 width="32px" height="32px" viewBox="0 0 32 32" style="enable-background:new 0 0 32 32;" xml:space="preserve">
<style type="text/css">
	.st0{fill:#DFE9F5;stroke:#657386;stroke-miterlimit:10;}
	.st1{fill:none;stroke:#657386;stroke-miterlimit:10;}
	.st2{fill:#FE9100;}
</style>
<rect x="3.5" y="6.5" class="st0" width="25" height="22"/>
<line class="st1" x1="3.5" y1="11" x2="28.5" y2="11"/>
<line class="st1" x1="8.5" y1="6.5" x2="8.5" y2="10.5"/>
<line class="st1" x1="13.8" y1="6.5" x2="13.8" y2="10.5"/>
<line class="st1" x1="19.2" y1="6.5" x2="19.2" y2="10.5"/>
<line class="st1" x1="24" y1="6.5" x2="24" y2="10.5"/>
<path class="st2" d="M19.4,25.8c-0.1,0-0.2,0-0.2,0c-0.7-0.1-1.4-0.4-2-1.1c-0.6-0.7-1.1-1.6-1.5-2.9c-0.7-2.2-1.4-3.7-2.1-4.7
	c-0.5-0.7-1-1.1-1.5-1.1h0c-0.8,0-1.7,1-2.7,2.9c-0.8,1.6-1.2,3.1-1.2,3.2l-1.2-0.4c0-0.1,0.5-1.7,1.3-3.4c1.2-2.4,2.4-3.6,3.7-3.6
	h0c0.9,0,1.7,0.5,2.5,1.6c0.8,1.1,1.5,2.8,2.2,5.1c0.6,1.9,1.4,3,2.4,3.1c0.4,0,0.9-0.1,1.5-0.4c0.5-0.3,1-0.7,1.6-1.3
	c1-1.1,1.8-2.3,2.1-2.8l1.1,0.6c-0.3,0.6-1.2,2-2.3,3.2c-0.6,0.7-1.2,1.2-1.8,1.5C20.7,25.6,20,25.8,19.4,25.8z"/>
</svg>
