<?xml version="1.0" encoding="utf-8"?>
<!-- Generator: Adobe Illustrator 22.0.0, SVG Export Plug-In . SVG Version: 6.00 Build 0)  -->
<svg version="1.1" id="图层_1" xmlns="http://www.w3.org/2000/svg" xmlns:xlink="http://www.w3.org/1999/xlink" x="0px" y="0px"
	 width="32px" height="32px" viewBox="0 0 32 32" style="enable-background:new 0 0 32 32;" xml:space="preserve">
<style type="text/css">
	.st0{fill:#DFE9F5;stroke:#657386;stroke-miterlimit:10;}
	.st1{fill:none;stroke:#56A844;stroke-miterlimit:10;}
	.st2{fill:#4D82B6;}
	.st3{fill:#56A844;}
</style>
<rect x="3.5" y="12.5" class="st0" width="4" height="4"/>
<rect x="7.5" y="12.5" class="st0" width="4" height="4"/>
<rect x="3.5" y="16.5" class="st0" width="4" height="4"/>
<rect x="7.5" y="16.5" class="st0" width="4" height="4"/>
<rect x="3.5" y="20.5" class="st0" width="4" height="4"/>
<rect x="7.5" y="20.5" class="st0" width="4" height="4"/>
<rect x="3.5" y="24.5" class="st0" width="4" height="4"/>
<rect x="7.5" y="24.5" class="st0" width="4" height="4"/>
<rect x="23.5" y="20.5" transform="matrix(-1.836970e-16 1 -1 -1.836970e-16 48 -3)" class="st0" width="4" height="4"/>
<rect x="23.5" y="24.5" transform="matrix(-1.836970e-16 1 -1 -1.836970e-16 52 1)" class="st0" width="4" height="4"/>
<rect x="19.5" y="20.5" transform="matrix(-1.836970e-16 1 -1 -1.836970e-16 44 1)" class="st0" width="4" height="4"/>
<rect x="19.5" y="24.5" transform="matrix(-1.836970e-16 1 -1 -1.836970e-16 48 5)" class="st0" width="4" height="4"/>
<rect x="15.5" y="20.5" transform="matrix(-1.836970e-16 1 -1 -1.836970e-16 40 5)" class="st0" width="4" height="4"/>
<rect x="15.5" y="24.5" transform="matrix(-1.836970e-16 1 -1 -1.836970e-16 44 9)" class="st0" width="4" height="4"/>
<rect x="11.5" y="20.5" transform="matrix(-1.836970e-16 1 -1 -1.836970e-16 36 9)" class="st0" width="4" height="4"/>
<rect x="11.5" y="24.5" transform="matrix(-1.836970e-16 1 -1 -1.836970e-16 40 13)" class="st0" width="4" height="4"/>
<rect x="3.5" y="8.5" class="st0" width="4" height="4"/>
<rect x="7.5" y="8.5" class="st0" width="4" height="4"/>
<path class="st1" d="M7.5,2.6"/>
<path class="st1" d="M7.5,6.6"/>
<path class="st1" d="M23.6,8.6"/>
<path class="st1" d="M23.6,12.6"/>
<path class="st2" d="M29.3,5.4l-0.6-0.1c-0.1,0-0.3-0.1-0.3-0.2c-0.1-0.3-0.3-0.6-0.5-0.8c-0.1-0.1-0.1-0.3-0.1-0.4L28,3.3
	c0.1-0.2,0-0.4-0.2-0.5l-1.4-0.8C26.4,2,26.1,2,26,2.1l-0.4,0.5c-0.1,0.1-0.2,0.2-0.4,0.1c-0.2,0-0.3,0-0.5,0c-0.2,0-0.3,0-0.5,0
	c-0.1,0-0.3,0-0.4-0.1l-0.4-0.5C23.5,2,23.2,2,23.1,2.1l-1.4,0.8c-0.2,0.1-0.2,0.3-0.2,0.5l0.2,0.6c0.1,0.1,0,0.3-0.1,0.4
	c-0.2,0.2-0.3,0.5-0.5,0.8c-0.1,0.1-0.2,0.2-0.3,0.2l-0.6,0.1c-0.2,0-0.3,0.2-0.3,0.4v1.6c0,0.2,0.1,0.4,0.3,0.4L21,7.9
	c0.1,0,0.3,0.1,0.3,0.2c0.1,0.3,0.3,0.6,0.5,0.8c0.1,0.1,0.1,0.3,0.1,0.4l-0.2,0.6c-0.1,0.2,0,0.4,0.2,0.5l1.4,0.8
	c0.2,0.1,0.4,0.1,0.5-0.1l0.4-0.5c0.1-0.1,0.2-0.2,0.4-0.1c0.2,0,0.3,0,0.5,0c0.2,0,0.3,0,0.5,0c0.1,0,0.3,0,0.4,0.1L26,11
	c0.1,0.2,0.3,0.2,0.5,0.1l1.4-0.8c0.2-0.1,0.2-0.3,0.2-0.5l-0.2-0.6c-0.1-0.1,0-0.3,0.1-0.4c0.2-0.2,0.3-0.5,0.5-0.8
	c0.1-0.1,0.2-0.2,0.3-0.2l0.6-0.1c0.2,0,0.3-0.2,0.3-0.4V5.8C29.6,5.6,29.5,5.5,29.3,5.4z M24.8,8.1c-0.8,0-1.5-0.7-1.5-1.5
	s0.7-1.5,1.5-1.5s1.5,0.7,1.5,1.5S25.6,8.1,24.8,8.1z"/>
<path class="st3" d="M17.8,19.6L14,15.8l1-1l2.8,2.8l5.1-5.1l1,1L17.8,19.6L17.8,19.6z"/>
</svg>
