<?xml version="1.0" encoding="utf-8"?>
<!-- Generator: Adobe Illustrator 22.0.0, SVG Export Plug-In . SVG Version: 6.00 Build 0)  -->
<svg version="1.1" id="图层_1" xmlns="http://www.w3.org/2000/svg" xmlns:xlink="http://www.w3.org/1999/xlink" x="0px" y="0px"
	 width="32px" height="32px" viewBox="0 0 32 32" style="enable-background:new 0 0 32 32;" xml:space="preserve">
<style type="text/css">
	.st0{fill:#4D82B6;}
	.st1{display:none;fill:#DFE9F5;stroke:#657386;stroke-miterlimit:10;}
	.st2{fill:#657386;}
	.st3{font-family:'04b03';}
	.st4{font-size:8.5px;}
	.st5{fill:url(#SVGID_1_);stroke:#657386;stroke-miterlimit:10;}
	.st6{fill:none;stroke:#657386;stroke-miterlimit:10;}
</style>
<path class="st0" d="M29.3,6.4l-0.6-0.1c-0.1,0-0.3-0.1-0.3-0.2c-0.1-0.3-0.3-0.6-0.5-0.8c-0.1-0.1-0.1-0.3-0.1-0.4L28,4.3
	c0.1-0.2,0-0.4-0.2-0.5l-1.4-0.8C26.4,3,26.1,3,26,3.1l-0.4,0.5c-0.1,0.1-0.2,0.2-0.4,0.1c-0.2,0-0.3,0-0.5,0c-0.2,0-0.3,0-0.5,0
	c-0.1,0-0.3,0-0.4-0.1l-0.4-0.5C23.5,3,23.2,3,23.1,3.1l-1.4,0.8c-0.2,0.1-0.2,0.3-0.2,0.5l0.2,0.6c0.1,0.1,0,0.3-0.1,0.4
	c-0.2,0.2-0.3,0.5-0.5,0.8c-0.1,0.1-0.2,0.2-0.3,0.2l-0.6,0.1c-0.2,0-0.3,0.2-0.3,0.4v1.6c0,0.2,0.1,0.4,0.3,0.4L21,8.9
	c0.1,0,0.3,0.1,0.3,0.2c0.1,0.3,0.3,0.6,0.5,0.8c0.1,0.1,0.1,0.3,0.1,0.4l-0.2,0.6c-0.1,0.2,0,0.4,0.2,0.5l1.4,0.8
	c0.2,0.1,0.4,0.1,0.5-0.1l0.4-0.5c0.1-0.1,0.2-0.2,0.4-0.1c0.2,0,0.3,0,0.5,0c0.2,0,0.3,0,0.5,0c0.1,0,0.3,0,0.4,0.1L26,12
	c0.1,0.2,0.3,0.2,0.5,0.1l1.4-0.8c0.2-0.1,0.2-0.3,0.2-0.5l-0.2-0.6c-0.1-0.1,0-0.3,0.1-0.4c0.2-0.2,0.3-0.5,0.5-0.8
	c0.1-0.1,0.2-0.2,0.3-0.2l0.6-0.1c0.2,0,0.3-0.2,0.3-0.4V6.8C29.6,6.6,29.5,6.5,29.3,6.4z M24.8,9.1c-0.8,0-1.5-0.7-1.5-1.5
	s0.7-1.5,1.5-1.5s1.5,0.7,1.5,1.5S25.6,9.1,24.8,9.1z"/>
<path class="st1" d="M3.5,4.5h9v10h16v8h-25C3.5,22.5,3.4,4.4,3.5,4.5z"/>
<text transform="matrix(1 0 0 1 4.5566 30.1455)" class="st2 st3 st4">11010</text>
<linearGradient id="SVGID_1_" gradientUnits="userSpaceOnUse" x1="3.1847" y1="4.9525" x2="24.6161" y2="26.3839">
	<stop  offset="0" style="stop-color:#FF0000"/>
	<stop  offset="0.245" style="stop-color:#FFFF00"/>
	<stop  offset="0.6361" style="stop-color:#00FF00"/>
	<stop  offset="1" style="stop-color:#0000FF"/>
</linearGradient>
<path class="st5" d="M3.5,4.6H12V14h17v8H3.5C3.5,22,3.5,4.5,3.5,4.6z"/>
<line class="st6" x1="16.5" y1="20.6" x2="16.5" y2="15.6"/>
<polygon class="st2" points="18.9,20 14,20 16.4,24.2 "/>
</svg>
