<?xml version="1.0" encoding="utf-8"?>
<!-- Generator: Adobe Illustrator 22.0.0, SVG Export Plug-In . SVG Version: 6.00 Build 0)  -->
<svg version="1.1" id="图层_1" xmlns="http://www.w3.org/2000/svg" xmlns:xlink="http://www.w3.org/1999/xlink" x="0px" y="0px"
	 width="32px" height="32px" viewBox="0 0 32 32" style="enable-background:new 0 0 32 32;" xml:space="preserve">
<style type="text/css">
	.st0{fill:#4D82B6;}
	.st1{fill:url(#SVGID_1_);stroke:#657386;stroke-miterlimit:10;}
	.st2{fill:#FFFFFF;}
	.st3{fill:none;stroke:#657386;stroke-miterlimit:10;}
</style>
<path class="st0" d="M29.3,6.4l-0.6-0.1c-0.1,0-0.3-0.1-0.3-0.2c-0.1-0.3-0.3-0.6-0.5-0.8c-0.1-0.1-0.1-0.3-0.1-0.4L28,4.3
	c0.1-0.2,0-0.4-0.2-0.5l-1.4-0.8C26.4,3,26.1,3,26,3.1l-0.4,0.5c-0.1,0.1-0.2,0.2-0.4,0.1c-0.2,0-0.3,0-0.5,0c-0.2,0-0.3,0-0.5,0
	c-0.1,0-0.3,0-0.4-0.1l-0.4-0.5C23.5,3,23.2,3,23.1,3.1l-1.4,0.8c-0.2,0.1-0.2,0.3-0.2,0.5l0.2,0.6c0.1,0.1,0,0.3-0.1,0.4
	c-0.2,0.2-0.3,0.5-0.5,0.8c-0.1,0.1-0.2,0.2-0.3,0.2l-0.6,0.1c-0.2,0-0.3,0.2-0.3,0.4v1.6c0,0.2,0.1,0.4,0.3,0.4L21,8.9
	c0.1,0,0.3,0.1,0.3,0.2c0.1,0.3,0.3,0.6,0.5,0.8c0.1,0.1,0.1,0.3,0.1,0.4l-0.2,0.6c-0.1,0.2,0,0.4,0.2,0.5l1.4,0.8
	c0.2,0.1,0.4,0.1,0.5-0.1l0.4-0.5c0.1-0.1,0.2-0.2,0.4-0.1c0.2,0,0.3,0,0.5,0c0.2,0,0.3,0,0.5,0c0.1,0,0.3,0,0.4,0.1L26,12
	c0.1,0.2,0.3,0.2,0.5,0.1l1.4-0.8c0.2-0.1,0.2-0.3,0.2-0.5l-0.2-0.6c-0.1-0.1,0-0.3,0.1-0.4c0.2-0.2,0.3-0.5,0.5-0.8
	c0.1-0.1,0.2-0.2,0.3-0.2l0.6-0.1c0.2,0,0.3-0.2,0.3-0.4V6.8C29.6,6.6,29.5,6.5,29.3,6.4z M24.8,9.1c-0.8,0-1.5-0.7-1.5-1.5
	s0.7-1.5,1.5-1.5s1.5,0.7,1.5,1.5S25.6,9.1,24.8,9.1z"/>
<linearGradient id="SVGID_1_" gradientUnits="userSpaceOnUse" x1="3.1847" y1="7.9525" x2="24.6161" y2="29.3839">
	<stop  offset="0" style="stop-color:#FF0000"/>
	<stop  offset="0.245" style="stop-color:#FFFF00"/>
	<stop  offset="0.6361" style="stop-color:#00FF00"/>
	<stop  offset="1" style="stop-color:#0000FF"/>
</linearGradient>
<path class="st1" d="M3.5,7.6H12V17h17v8H3.5C3.5,25,3.5,7.5,3.5,7.6z"/>
<g>
	<rect x="17.6" y="17.5" class="st2" width="10.9" height="7"/>
</g>
<line class="st3" x1="17.7" y1="5.8" x2="17.7" y2="9.8"/>
<line class="st3" x1="17.7" y1="10.8" x2="17.7" y2="14.8"/>
<line class="st3" x1="17.7" y1="15.8" x2="17.7" y2="19.8"/>
<line class="st3" x1="17.7" y1="20.8" x2="17.7" y2="24.8"/>
<line class="st3" x1="17.7" y1="26.8" x2="17.7" y2="30.8"/>
</svg>
