<?xml version="1.0" encoding="utf-8"?>
<!-- Generator: Adobe Illustrator 22.0.0, SVG Export Plug-In . SVG Version: 6.00 Build 0)  -->
<svg version="1.1" id="图层_1" xmlns="http://www.w3.org/2000/svg" xmlns:xlink="http://www.w3.org/1999/xlink" x="0px" y="0px"
	 width="32px" height="32px" viewBox="0 0 32 32" style="enable-background:new 0 0 32 32;" xml:space="preserve">
<style type="text/css">
	.st0{fill:#DFE9F5;stroke:#657386;stroke-miterlimit:10;}
	.st1{fill:#4D82B6;}
	.st2{fill:#56A844;}
</style>
<polygon class="st0" points="5.5,10.1 13.2,10.1 13.2,18.8 23.6,18.8 23.6,25.6 20.1,29 2,29 2,13.5 "/>
<polygon class="st0" points="2,13.5 9.8,13.5 9.8,22.2 20.1,22.2 20.1,29.1 2,29.1 2,13.5 "/>
<line class="st0" x1="9.8" y1="13.5" x2="13.2" y2="10.1"/>
<line class="st0" x1="9.8" y1="22.2" x2="13.2" y2="18.7"/>
<line class="st0" x1="20.1" y1="22.2" x2="23.6" y2="18.7"/>
<path class="st1" d="M29.3,6.4l-0.6-0.1c-0.1,0-0.3-0.1-0.3-0.2c-0.1-0.3-0.3-0.6-0.5-0.8c-0.1-0.1-0.1-0.3-0.1-0.4L28,4.3
	c0.1-0.2,0-0.4-0.2-0.5l-1.4-0.8C26.4,3,26.1,3,26,3.1l-0.4,0.5c-0.1,0.1-0.2,0.2-0.4,0.1c-0.2,0-0.3,0-0.5,0c-0.2,0-0.3,0-0.5,0
	c-0.1,0-0.3,0-0.4-0.1l-0.4-0.5C23.5,3,23.2,3,23.1,3.1l-1.4,0.8c-0.2,0.1-0.2,0.3-0.2,0.5l0.2,0.6c0.1,0.1,0,0.3-0.1,0.4
	c-0.2,0.2-0.3,0.5-0.5,0.8c-0.1,0.1-0.2,0.2-0.3,0.2l-0.6,0.1c-0.2,0-0.3,0.2-0.3,0.4v1.6c0,0.2,0.1,0.4,0.3,0.4L21,8.9
	c0.1,0,0.3,0.1,0.3,0.2c0.1,0.3,0.3,0.6,0.5,0.8c0.1,0.1,0.1,0.3,0.1,0.4l-0.2,0.6c-0.1,0.2,0,0.4,0.2,0.5l1.4,0.8
	c0.2,0.1,0.4,0.1,0.5-0.1l0.4-0.5c0.1-0.1,0.2-0.2,0.4-0.1c0.2,0,0.3,0,0.5,0c0.2,0,0.3,0,0.5,0c0.1,0,0.3,0,0.4,0.1L26,12
	c0.1,0.2,0.3,0.2,0.5,0.1l1.4-0.8c0.2-0.1,0.2-0.3,0.2-0.5l-0.2-0.6c-0.1-0.1,0-0.3,0.1-0.4c0.2-0.2,0.3-0.5,0.5-0.8
	c0.1-0.1,0.2-0.2,0.3-0.2l0.6-0.1c0.2,0,0.3-0.2,0.3-0.4V6.8C29.6,6.6,29.5,6.5,29.3,6.4z M24.8,9.1c-0.8,0-1.5-0.7-1.5-1.5
	s0.7-1.5,1.5-1.5s1.5,0.7,1.5,1.5S25.6,9.1,24.8,9.1z"/>
<path class="st2" d="M22.8,14.2l-3.2-3.5c-0.1-0.1-0.3-0.1-0.5,0C19,10.8,19,10.9,19,11v1.9c-2.7,0-4.8,2.1-4.8,4.8
	c0,0.6,0.1,1.3,0.4,1.9c0.4-2,2.3-3.5,4.4-3.5v1.9c0,0.1,0,0.2,0.1,0.3c0,0.1,0.1,0.1,0.2,0.1c0.1,0,0.2,0,0.2-0.1l3.2-3.4
	c0.1-0.1,0.1-0.1,0.1-0.2C22.9,14.4,22.8,14.3,22.8,14.2z"/>
</svg>
