<?xml version="1.0" encoding="utf-8"?>
<!-- Generator: Adobe Illustrator 22.0.0, SVG Export Plug-In . SVG Version: 6.00 Build 0)  -->
<svg version="1.1" id="图层_1" xmlns="http://www.w3.org/2000/svg" xmlns:xlink="http://www.w3.org/1999/xlink" x="0px" y="0px"
	 width="32px" height="32px" viewBox="0 0 32 32" style="enable-background:new 0 0 32 32;" xml:space="preserve">
<style type="text/css">
	.st0{fill:#DFE0E0;}
	.st1{fill:#697689;}
	.st2{fill:#719943;}
	.st3{fill:#47B1D8;}
	.st4{fill:#DE4130;}
	.st5{fill:#FFFFFF;stroke:#697689;stroke-miterlimit:10;}
</style>
<g>
	<path class="st0" d="M15.5,30.6c-2.8,0-5.1-0.8-6.2-2.2c-0.5-0.6-0.7-1.3-0.6-1.9c0.2-1.1,1-1.5,2-1.8c0.5-0.2,1-0.4,1.4-0.8
		c0.7-0.7,1.1-1.6,1-2.6c0-1.2-0.7-3.3-2.9-3.6c-0.3,0-0.5-0.1-0.8-0.1c-0.5,0-1,0.1-1.5,0.1c-0.5,0.1-1,0.1-1.4,0.1
		c-0.7,0-1.7-0.1-2.6-1.1C3,15.9,2.9,13,4.1,10.1c0.8-2,3.4-6.6,9.8-6.6c0.4,0,0.9,0,1.4,0.1c12.4,1.2,13.1,11.2,13.1,14.2
		c-0.1,5.2-4.7,12.8-12.7,12.8L15.5,30.6z"/>
	<path class="st1" d="M13.9,4c0.4,0,0.9,0,1.3,0.1c11.9,1.2,12.7,10.8,12.6,13.7c-0.1,5-4.5,12.3-12.2,12.3l-0.1,0
		c-3.8,0-5.4-1.4-5.9-2c-0.4-0.5-0.6-1-0.5-1.5c0.1-0.8,0.7-1.1,1.7-1.5c0.5-0.2,1.1-0.5,1.5-0.9c0.8-0.8,1.2-1.8,1.2-3
		c0-1.3-0.8-3.7-3.3-4.1c-0.3,0-0.6-0.1-0.9-0.1c-0.5,0-1.1,0.1-1.6,0.1c-0.5,0.1-0.9,0.1-1.4,0.1c-0.7,0-1.4-0.1-2.3-1
		c-0.5-0.5-0.8-3.1,0.4-6.1C5.5,8,8.1,4,13.9,4 M13.9,3C3.4,3,1.3,14.9,3.4,17.1c1,1,2,1.3,3,1.3c1,0,2-0.2,2.9-0.2
		c0.2,0,0.5,0,0.7,0.1c2.1,0.3,2.5,2.5,2.5,3.1c0,0.6-0.1,1.5-0.9,2.2c-0.9,0.9-3.1,0.8-3.5,2.9c-0.4,2.1,2.1,4.6,7.4,4.7
		c0,0,0.1,0,0.1,0c8.5,0,13.1-8,13.2-13.3C28.9,13.2,27,4.2,15.3,3.1C14.8,3.1,14.4,3,13.9,3L13.9,3z"/>
</g>
<circle class="st2" cx="22" cy="20" r="2"/>
<circle class="st3" cx="18" cy="25" r="2"/>
<circle class="st4" cx="20" cy="14" r="2"/>
<circle class="st5" cx="13" cy="11" r="3"/>
</svg>
