<?xml version="1.0" encoding="utf-8"?>
<!-- Generator: Adobe Illustrator 22.0.0, SVG Export Plug-In . SVG Version: 6.00 Build 0)  -->
<svg version="1.1" id="图层_1" xmlns="http://www.w3.org/2000/svg" xmlns:xlink="http://www.w3.org/1999/xlink" x="0px" y="0px"
	 width="32px" height="32px" viewBox="0 0 32 32" style="enable-background:new 0 0 32 32;" xml:space="preserve">
<style type="text/css">
	.st0{fill:#DFE9F5;stroke:#657386;stroke-miterlimit:10;}
	.st1{fill:none;stroke:#56A844;stroke-miterlimit:10;}
	.st2{fill:#4D82B6;}
	.st3{fill:#FF9200;}
	.st4{fill:none;stroke:#FF9200;stroke-miterlimit:10;}
	.st5{fill:#657386;}
</style>
<rect x="5.5" y="10.5" class="st0" width="6" height="4"/>
<line class="st0" x1="11.5" y1="14.5" x2="11.5" y2="10.5"/>
<rect x="5.5" y="14.5" class="st0" width="6" height="4"/>
<line class="st0" x1="11.5" y1="18.5" x2="11.5" y2="14.5"/>
<rect x="5.5" y="18.5" class="st0" width="6" height="4"/>
<line class="st0" x1="11.5" y1="22.5" x2="11.5" y2="18.5"/>
<rect x="5.5" y="22.5" class="st0" width="6" height="4"/>
<line class="st0" x1="11.5" y1="26.5" x2="11.5" y2="22.5"/>
<rect x="5.5" y="6.5" class="st0" width="6" height="4"/>
<line class="st0" x1="11.5" y1="10.5" x2="11.5" y2="6.5"/>
<path class="st1" d="M8.2,0.6"/>
<path class="st1" d="M11.4,4.6"/>
<path class="st1" d="M25.6,8.6"/>
<path class="st1" d="M25.6,12.6"/>
<path class="st2" d="M29.3,6.4l-0.6-0.1c-0.1,0-0.3-0.1-0.3-0.2c-0.1-0.3-0.3-0.6-0.5-0.8c-0.1-0.1-0.1-0.3-0.1-0.4L28,4.3
	c0.1-0.2,0-0.4-0.2-0.5l-1.4-0.8C26.4,3,26.1,3,26,3.1l-0.4,0.5c-0.1,0.1-0.2,0.2-0.4,0.1c-0.2,0-0.3,0-0.5,0c-0.2,0-0.3,0-0.5,0
	c-0.1,0-0.3,0-0.4-0.1l-0.4-0.5C23.5,3,23.2,3,23.1,3.1l-1.4,0.8c-0.2,0.1-0.2,0.3-0.2,0.5l0.2,0.6c0.1,0.1,0,0.3-0.1,0.4
	c-0.2,0.2-0.3,0.5-0.5,0.8c-0.1,0.1-0.2,0.2-0.3,0.2l-0.6,0.1c-0.2,0-0.3,0.2-0.3,0.4v1.6c0,0.2,0.1,0.4,0.3,0.4L21,8.9
	c0.1,0,0.3,0.1,0.3,0.2c0.1,0.3,0.3,0.6,0.5,0.8c0.1,0.1,0.1,0.3,0.1,0.4l-0.2,0.6c-0.1,0.2,0,0.4,0.2,0.5l1.4,0.8
	c0.2,0.1,0.4,0.1,0.5-0.1l0.4-0.5c0.1-0.1,0.2-0.2,0.4-0.1c0.2,0,0.3,0,0.5,0c0.2,0,0.3,0,0.5,0c0.1,0,0.3,0,0.4,0.1L26,12
	c0.1,0.2,0.3,0.2,0.5,0.1l1.4-0.8c0.2-0.1,0.2-0.3,0.2-0.5l-0.2-0.6c-0.1-0.1,0-0.3,0.1-0.4c0.2-0.2,0.3-0.5,0.5-0.8
	c0.1-0.1,0.2-0.2,0.3-0.2l0.6-0.1c0.2,0,0.3-0.2,0.3-0.4V6.8C29.6,6.6,29.5,6.5,29.3,6.4z M24.8,9.1c-0.8,0-1.5-0.7-1.5-1.5
	s0.7-1.5,1.5-1.5s1.5,0.7,1.5,1.5S25.6,9.1,24.8,9.1z"/>
<path class="st3" d="M19.2,15l-1.1-1.8l4.4-0.4l-2.2,3.9L19.2,15z"/>
<path class="st3" d="M17.1,16.6L16,14.8l4.4-0.4l-2.2,3.9L17.1,16.6z"/>
<line class="st4" x1="10.5" y1="20.5" x2="18" y2="16"/>
<path class="st3" d="M18.5,23.8l-1.1,1.8l4.4,0.4L19.7,22L18.5,23.8z"/>
<line class="st4" x1="11.9" y1="19.8" x2="19.4" y2="24.3"/>
<rect x="10" y="4" class="st5" width="2" height="24"/>
</svg>
