<?xml version="1.0" encoding="utf-8"?>
<!-- Generator: Adobe Illustrator 22.0.0, SVG Export Plug-In . SVG Version: 6.00 Build 0)  -->
<svg version="1.1" id="图层_1" xmlns="http://www.w3.org/2000/svg" xmlns:xlink="http://www.w3.org/1999/xlink" x="0px" y="0px"
	 width="32px" height="32px" viewBox="0 0 32 32" style="enable-background:new 0 0 32 32;" xml:space="preserve">
<style type="text/css">
	.st0{fill:#4D82B6;}
	.st1{fill:none;stroke:#56A844;stroke-miterlimit:10;}
	.st2{fill:#FE9100;stroke:#657386;stroke-miterlimit:10;}
	.st3{fill:#DFE9F5;stroke:#657386;stroke-miterlimit:10;}
</style>
<path class="st0" d="M29.3,6.4l-0.6-0.1c-0.1,0-0.3-0.1-0.3-0.2c-0.1-0.3-0.3-0.6-0.5-0.8c-0.1-0.1-0.1-0.3-0.1-0.4L28,4.3
	c0.1-0.2,0-0.4-0.2-0.5l-1.4-0.8C26.4,3,26.1,3,26,3.1l-0.4,0.5c-0.1,0.1-0.2,0.2-0.4,0.1c-0.2,0-0.3,0-0.5,0c-0.2,0-0.3,0-0.5,0
	c-0.1,0-0.3,0-0.4-0.1l-0.4-0.5C23.5,3,23.2,3,23.1,3.1l-1.4,0.8c-0.2,0.1-0.2,0.3-0.2,0.5l0.2,0.6c0.1,0.1,0,0.3-0.1,0.4
	c-0.2,0.2-0.3,0.5-0.5,0.8c-0.1,0.1-0.2,0.2-0.3,0.2l-0.6,0.1c-0.2,0-0.3,0.2-0.3,0.4v1.6c0,0.2,0.1,0.4,0.3,0.4L21,8.9
	c0.1,0,0.3,0.1,0.3,0.2c0.1,0.3,0.3,0.6,0.5,0.8c0.1,0.1,0.1,0.3,0.1,0.4l-0.2,0.6c-0.1,0.2,0,0.4,0.2,0.5l1.4,0.8
	c0.2,0.1,0.4,0.1,0.5-0.1l0.4-0.5c0.1-0.1,0.2-0.2,0.4-0.1c0.2,0,0.3,0,0.5,0c0.2,0,0.3,0,0.5,0c0.1,0,0.3,0,0.4,0.1L26,12
	c0.1,0.2,0.3,0.2,0.5,0.1l1.4-0.8c0.2-0.1,0.2-0.3,0.2-0.5l-0.2-0.6c-0.1-0.1,0-0.3,0.1-0.4c0.2-0.2,0.3-0.5,0.5-0.8
	c0.1-0.1,0.2-0.2,0.3-0.2l0.6-0.1c0.2,0,0.3-0.2,0.3-0.4V6.8C29.6,6.6,29.5,6.5,29.3,6.4z M24.8,9.1c-0.8,0-1.5-0.7-1.5-1.5
	s0.7-1.5,1.5-1.5s1.5,0.7,1.5,1.5S25.6,9.1,24.8,9.1z"/>
<line class="st1" x1="9.5" y1="19.8" x2="21.5" y2="19.8"/>
<path class="st1" d="M21.5,19.5c0-3.9-5.4-7-12-7"/>
<path class="st1" d="M21.5,19.5c0,3.9-5.4,7-12,7"/>
<rect x="21.5" y="16.3" class="st2" width="7" height="7"/>
<rect x="-4" y="15.8" transform="matrix(1.850483e-07 1 -1 1.850483e-07 25.2542 12.2542)" class="st3" width="21" height="6"/>
</svg>
