<?xml version="1.0" encoding="utf-8"?>
<!-- Generator: Adobe Illustrator 22.0.0, SVG Export Plug-In . SVG Version: 6.00 Build 0)  -->
<svg version="1.1" id="图层_1" xmlns="http://www.w3.org/2000/svg" xmlns:xlink="http://www.w3.org/1999/xlink" x="0px" y="0px"
	 width="32px" height="32px" viewBox="0 0 32 32" style="enable-background:new 0 0 32 32;" xml:space="preserve">
<style type="text/css">
	.st0{fill:#4D82B6;}
	.st1{display:none;fill:#DFE9F5;stroke:#657386;stroke-miterlimit:10;}
	.st2{fill:#DFE9F5;stroke:#657386;stroke-miterlimit:10;}
	.st3{fill:none;stroke:#FE9100;stroke-miterlimit:10;}
	.st4{fill:#FE9100;}
</style>
<path class="st0" d="M29.3,6.4l-0.6-0.1c-0.1,0-0.3-0.1-0.3-0.2c-0.1-0.3-0.3-0.6-0.5-0.8c-0.1-0.1-0.1-0.3-0.1-0.4L28,4.3
	c0.1-0.2,0-0.4-0.2-0.5l-1.4-0.8C26.4,3,26.1,3,26,3.1l-0.4,0.5c-0.1,0.1-0.2,0.2-0.4,0.1c-0.2,0-0.3,0-0.5,0c-0.2,0-0.3,0-0.5,0
	c-0.1,0-0.3,0-0.4-0.1l-0.4-0.5C23.5,3,23.2,3,23.1,3.1l-1.4,0.8c-0.2,0.1-0.2,0.3-0.2,0.5l0.2,0.6c0.1,0.1,0,0.3-0.1,0.4
	c-0.2,0.2-0.3,0.5-0.5,0.8c-0.1,0.1-0.2,0.2-0.3,0.2l-0.6,0.1c-0.2,0-0.3,0.2-0.3,0.4v1.6c0,0.2,0.1,0.4,0.3,0.4L21,8.9
	c0.1,0,0.3,0.1,0.3,0.2c0.1,0.3,0.3,0.6,0.5,0.8c0.1,0.1,0.1,0.3,0.1,0.4l-0.2,0.6c-0.1,0.2,0,0.4,0.2,0.5l1.4,0.8
	c0.2,0.1,0.4,0.1,0.5-0.1l0.4-0.5c0.1-0.1,0.2-0.2,0.4-0.1c0.2,0,0.3,0,0.5,0c0.2,0,0.3,0,0.5,0c0.1,0,0.3,0,0.4,0.1L26,12
	c0.1,0.2,0.3,0.2,0.5,0.1l1.4-0.8c0.2-0.1,0.2-0.3,0.2-0.5l-0.2-0.6c-0.1-0.1,0-0.3,0.1-0.4c0.2-0.2,0.3-0.5,0.5-0.8
	c0.1-0.1,0.2-0.2,0.3-0.2l0.6-0.1c0.2,0,0.3-0.2,0.3-0.4V6.8C29.6,6.6,29.5,6.5,29.3,6.4z M24.8,9.1c-0.8,0-1.5-0.7-1.5-1.5
	s0.7-1.5,1.5-1.5s1.5,0.7,1.5,1.5S25.6,9.1,24.8,9.1z"/>
<path class="st1" d="M3.5,4.5h9v10h16v8h-25C3.5,22.5,3.4,4.4,3.5,4.5z"/>
<path class="st2" d="M3.1,10.6h8.5V20h17v8H3C3,28,3.1,10.5,3.1,10.6z"/>
<line class="st3" x1="17.5" y1="14.6" x2="17.5" y2="7.6"/>
<polygon class="st4" points="20,14 15,14 17.4,18.2 "/>
</svg>
