<?xml version="1.0" encoding="utf-8"?>
<!-- Generator: Adobe Illustrator 22.0.0, SVG Export Plug-In . SVG Version: 6.00 Build 0)  -->
<svg version="1.1" xmlns="http://www.w3.org/2000/svg" xmlns:xlink="http://www.w3.org/1999/xlink" x="0px" y="0px" width="32px"
	 height="32px" viewBox="0 0 32 32" style="enable-background:new 0 0 32 32;" xml:space="preserve">
<style type="text/css">
	.st0{display:none;}
	.st1{display:inline;fill:#4D82B6;}
	.st2{fill:#657386;}
	.st3{fill:#4D82B6;}
</style>
<g id="图层_1" class="st0">
	<path class="st1" d="M15.2,24.1v-6.5H7.9v3.3L3,16l4.9-4.9V16h7.3V7.9h-4.2L16,3l4.9,4.9h-4V16h7.3v-4.9L29,16l-4.9,4.9v-3.3h-7.3
		v6.5h4L16,29l-4.9-4.9C11.1,24.1,15.2,24.1,15.2,24.1z"/>
</g>
<g id="图层_1_x5F_复制">
	<path class="st2" d="M15.6,20.1v-3.3h-3.7v1.7L9.3,16l2.5-2.5V16h3.7v-4.1h-2.1L16,9.3l2.5,2.5h-2.1V16h3.7v-2.5l2.5,2.5l-2.5,2.5
		v-1.7h-3.7v3.3h2.1L16,22.7l-2.5-2.5C13.5,20.1,15.6,20.1,15.6,20.1z"/>
	<path class="st3" d="M15.9,28.8c-1.8,0-3.5-0.3-5.1-1c-1.5-0.7-2.9-1.6-4.1-2.8c-0.4-0.4-0.4-0.9,0-1.3c0.4-0.4,0.9-0.4,1.3,0
		c2.1,2.1,4.9,3.3,7.9,3.3C22,27,27,22,27,15.8S22,4.7,15.9,4.7c-3,0-5.8,1.2-7.9,3.3c-0.4,0.4-0.9,0.4-1.3,0C6.3,7.6,6.3,7,6.7,6.6
		c1.2-1.2,2.6-2.1,4.1-2.8c1.6-0.7,3.3-1,5.1-1s3.5,0.3,5.1,1c1.5,0.7,2.9,1.6,4.1,2.8c1.2,1.2,2.1,2.6,2.8,4.1c0.7,1.6,1,3.3,1,5.1
		s-0.3,3.5-1,5.1c-0.7,1.5-1.6,2.9-2.8,4.1c-1.2,1.2-2.6,2.1-4.1,2.8C19.3,28.5,17.6,28.8,15.9,28.8L15.9,28.8z"/>
	<path class="st3" d="M11.1,9.3H6.7c-0.5,0-0.9-0.4-0.9-0.9V3.9C5.8,3.4,6.2,3,6.7,3s0.9,0.4,0.9,0.9v3.5h3.5c0.5,0,0.9,0.4,0.9,0.9
		C12.1,8.9,11.6,9.3,11.1,9.3z"/>
</g>
</svg>
