<?xml version="1.0" encoding="utf-8"?>
<!-- Generator: Adobe Illustrator 22.0.0, SVG Export Plug-In . SVG Version: 6.00 Build 0)  -->
<svg version="1.1" id="图层_1" xmlns="http://www.w3.org/2000/svg" xmlns:xlink="http://www.w3.org/1999/xlink" x="0px" y="0px"
	 width="32px" height="32px" viewBox="0 0 32 32" style="enable-background:new 0 0 32 32;" xml:space="preserve">
<style type="text/css">
	.st0{fill:#657386;}
	.st1{fill:#FFA800;}
</style>
<path class="st0" d="M26.9,15.9H7.8c-0.7,0-1.3,0.4-1.5,1.1l-1.7,5.1V8.3h7.9c0,1.8,1.4,3.2,3.2,3.2h7.9v2.4c0,0.4,0.4,0.8,0.8,0.8
	c0.4,0,0.8-0.4,0.8-0.8c0,0,0,0,0,0h0v-2.4c0-0.9-0.7-1.6-1.6-1.6h-7.9c-0.9,0-1.6-0.7-1.6-1.6c0-0.4-0.2-0.8-0.5-1.1
	c-0.3-0.3-0.7-0.5-1.1-0.5H4.6C3.7,6.7,3,7.4,3,8.3V27c0,0.9,0.7,1.6,1.6,1.6h19.1c0.7,0,1.3-0.4,1.5-1.1l3.3-10
	C28.4,16.6,27.7,15.9,26.9,15.9z"/>
<path class="st1" d="M28.4,7.5c-1-1.9-4.1-5.9-11.8-1.7c0,0,8.5-2.1,9.5,2.6l-1.4,0l3.5,2.2l1.3-3.9C29.5,6.7,28.4,7.5,28.4,7.5z"/>
</svg>
