<?xml version="1.0" encoding="utf-8"?>
<!-- Generator: Adobe Illustrator 22.0.0, SVG Export Plug-In . SVG Version: 6.00 Build 0)  -->
<svg version="1.1" id="图层_1" xmlns="http://www.w3.org/2000/svg" xmlns:xlink="http://www.w3.org/1999/xlink" x="0px" y="0px"
	 width="32px" height="32px" viewBox="0 0 32 32" style="enable-background:new 0 0 32 32;" xml:space="preserve">
<style type="text/css">
	.st0{fill:#FFFFFF;}
	.st1{fill:#657386;}
	.st2{fill:#FE9100;}
</style>
<g>
	<rect x="3.5" y="3.5" class="st0" width="25" height="25"/>
	<path class="st1" d="M28,4v24H4V4H28 M29,3H3v26h26V3L29,3z"/>
</g>
<path class="st2" d="M10.3,8.5l4.7,4.7l-1.7,1.7l-4.7-4.7L5.8,13V5.8h7.3L10.3,8.5z M21.8,23.5l-4.7-4.7l1.7-1.7l4.7,4.7l2.8-2.8
	v7.3H19C19.1,26.2,21.8,23.5,21.8,23.5z M23.5,10.2l-4.7,4.7l-1.7-1.7l4.7-4.7l-2.7-2.7h7.3V13C26.3,13,23.5,10.2,23.5,10.2z
	 M8.6,21.8l4.7-4.7l1.7,1.7l-4.7,4.7l2.7,2.7H5.8V19L8.6,21.8z"/>
</svg>
