<?xml version="1.0" encoding="utf-8"?>
<!-- Generator: Adobe Illustrator 22.0.0, SVG Export Plug-In . SVG Version: 6.00 Build 0)  -->
<svg version="1.1" id="图层_1" xmlns="http://www.w3.org/2000/svg" xmlns:xlink="http://www.w3.org/1999/xlink" x="0px" y="0px"
	 width="32px" height="32px" viewBox="0 0 32 32" style="enable-background:new 0 0 32 32;" xml:space="preserve">
<style type="text/css">
	.st0{fill:#4D82B8;}
	.st1{fill:#56A844;}
</style>
<path class="st0" d="M18.3,25.8c-1.7,0-3.4-0.6-4.7-1.9c-2.6-2.6-2.6-6.8,0-9.4c2.6-2.6,6.8-2.6,9.4,0c2.6,2.6,2.6,6.8,0,9.4
	C21.7,25.2,20,25.8,18.3,25.8z M18.3,13.9c-1.3,0-2.7,0.5-3.7,1.5c-2,2-2,5.4,0,7.4c2,2,5.4,2,7.4,0c2-2,2-5.4,0-7.4
	C21,14.4,19.6,13.9,18.3,13.9z"/>
<path class="st0" d="M27.4,29c-0.2,0-0.4-0.1-0.5-0.2l-4.7-4.7c-0.3-0.3-0.3-0.7,0-1c0.3-0.3,0.7-0.3,1,0l4.7,4.7
	c0.3,0.3,0.3,0.7,0,1C27.8,28.9,27.6,29,27.4,29z"/>
<rect x="4" y="4" class="st1" width="7" height="2"/>
<rect x="4" y="4" class="st1" width="2" height="7"/>
<rect x="14" y="4" transform="matrix(-1 -4.482515e-11 4.482515e-11 -1 35 10)" class="st1" width="7" height="2"/>
<rect x="19" y="4" transform="matrix(-1 -4.502011e-11 4.502011e-11 -1 40 15)" class="st1" width="2" height="7"/>
<rect x="3.9" y="18.2" class="st1" width="7" height="2"/>
<rect x="3.9" y="13.2" class="st1" width="2" height="7"/>
</svg>
