<?xml version="1.0" encoding="utf-8"?>
<!-- Generator: Adobe Illustrator 22.0.0, SVG Export Plug-In . SVG Version: 6.00 Build 0)  -->
<svg version="1.1" id="图层_1" xmlns="http://www.w3.org/2000/svg" xmlns:xlink="http://www.w3.org/1999/xlink" x="0px" y="0px"
	 width="32px" height="32px" viewBox="0 0 32 32" style="enable-background:new 0 0 32 32;" xml:space="preserve">
<style type="text/css">
	.st0{fill:#4D82B6;}
</style>
<path class="st0" d="M25,18.4c0.2-0.8,0.3-2.6,0.2-3.5c-0.4-6-7.3-9-12.2-7.8c3.7,1.3,7.4,4.7,7.4,8.8c0,0.5,0,1-0.1,1.5l-3.9-0.4
	l2.6,3l2.6,3l3.3-2.1l3.3-2.1L25,18.4z"/>
<path class="st0" d="M7,13.9c-0.2,0.8-0.3,2.6-0.3,3.5c0.3,6.1,7.1,9.2,12,8.1c-3.6-1.4-7.3-4.9-7.2-9c0-0.5,0.1-1,0.1-1.5l3.9,0.5
	l-2.5-3l-2.5-3l-3.3,2l-3.3,2L7,13.9z"/>
</svg>
