<?xml version="1.0" encoding="utf-8"?>
<!-- Generator: Adobe Illustrator 22.0.0, SVG Export Plug-In . SVG Version: 6.00 Build 0)  -->
<svg version="1.1" id="图层_1" xmlns="http://www.w3.org/2000/svg" xmlns:xlink="http://www.w3.org/1999/xlink" x="0px" y="0px"
	 width="32px" height="32px" viewBox="0 0 32 32" style="enable-background:new 0 0 32 32;" xml:space="preserve">
<style type="text/css">
	.st0{fill:#4D82B6;}
	.st1{fill:#DFE9F5;stroke:#657386;stroke-miterlimit:10;}
	.st2{fill:none;stroke:#FE9100;stroke-miterlimit:10;}
	.st3{fill:#FE9100;}
</style>
<path class="st0" d="M29.3,6.4l-0.6-0.1c-0.1,0-0.3-0.1-0.3-0.2c-0.1-0.3-0.3-0.6-0.5-0.8c-0.1-0.1-0.1-0.3-0.1-0.4L28,4.3
	c0.1-0.2,0-0.4-0.2-0.5l-1.4-0.8C26.4,3,26.1,3,26,3.1l-0.4,0.5c-0.1,0.1-0.2,0.2-0.4,0.1c-0.2,0-0.3,0-0.5,0c-0.2,0-0.3,0-0.5,0
	c-0.1,0-0.3,0-0.4-0.1l-0.4-0.5C23.5,3,23.2,3,23.1,3.1l-1.4,0.8c-0.2,0.1-0.2,0.3-0.2,0.5l0.2,0.6c0.1,0.1,0,0.3-0.1,0.4
	c-0.2,0.2-0.3,0.5-0.5,0.8c-0.1,0.1-0.2,0.2-0.3,0.2l-0.6,0.1c-0.2,0-0.3,0.2-0.3,0.4v1.6c0,0.2,0.1,0.4,0.3,0.4L21,8.9
	c0.1,0,0.3,0.1,0.3,0.2c0.1,0.3,0.3,0.6,0.5,0.8c0.1,0.1,0.1,0.3,0.1,0.4l-0.2,0.6c-0.1,0.2,0,0.4,0.2,0.5l1.4,0.8
	c0.2,0.1,0.4,0.1,0.5-0.1l0.4-0.5c0.1-0.1,0.2-0.2,0.4-0.1c0.2,0,0.3,0,0.5,0c0.2,0,0.3,0,0.5,0c0.1,0,0.3,0,0.4,0.1L26,12
	c0.1,0.2,0.3,0.2,0.5,0.1l1.4-0.8c0.2-0.1,0.2-0.3,0.2-0.5l-0.2-0.6c-0.1-0.1,0-0.3,0.1-0.4c0.2-0.2,0.3-0.5,0.5-0.8
	c0.1-0.1,0.2-0.2,0.3-0.2l0.6-0.1c0.2,0,0.3-0.2,0.3-0.4V6.8C29.6,6.6,29.5,6.5,29.3,6.4z M24.8,9.1c-0.8,0-1.5-0.7-1.5-1.5
	s0.7-1.5,1.5-1.5s1.5,0.7,1.5,1.5S25.6,9.1,24.8,9.1z"/>
<polygon class="st1" points="5.1,14.5 10.6,14.5 10.6,19.9 21.8,19.9 21.8,14.5 27.4,14.5 27.4,29.4 21.8,29.4 21.8,24.7 10.6,24.7 
	10.6,29.4 5.1,29.4 "/>
<line class="st2" x1="23.6" y1="22.2" x2="26.9" y2="22.2"/>
<line class="st2" x1="18.7" y1="22.2" x2="22" y2="22.2"/>
<line class="st2" x1="14.1" y1="22.2" x2="17.4" y2="22.2"/>
<line class="st2" x1="9.2" y1="22.2" x2="12.5" y2="22.2"/>
<line class="st2" x1="4.7" y1="22.2" x2="7.9" y2="22.2"/>
<polygon class="st3" points="4.6,19.5 4.6,24.5 0.5,22 "/>
<line class="st2" x1="15.7" y1="16.2" x2="15.7" y2="19.5"/>
<line class="st2" x1="15.7" y1="11.8" x2="15.7" y2="15.1"/>
<polygon class="st3" points="13.2,11.9 18.2,11.9 15.8,7.7 "/>
</svg>
