<?xml version="1.0" encoding="utf-8"?>
<!-- Generator: Adobe Illustrator 22.0.0, SVG Export Plug-In . SVG Version: 6.00 Build 0)  -->
<svg version="1.1" id="图层_1" xmlns="http://www.w3.org/2000/svg" xmlns:xlink="http://www.w3.org/1999/xlink" x="0px" y="0px"
	 width="32px" height="32px" viewBox="0 0 32 32" style="enable-background:new 0 0 32 32;" xml:space="preserve">
<style type="text/css">
	.st0{fill:#4D82B6;}
	.st1{fill:#DFE9F5;stroke:#657386;stroke-miterlimit:10;}
	.st2{fill:none;stroke:#FE9100;stroke-miterlimit:10;}
	.st3{fill:#FE9100;}
	.st4{fill:#56A844;}
</style>
<path class="st0" d="M29.3,6.4l-0.6-0.1c-0.1,0-0.3-0.1-0.3-0.2c-0.1-0.3-0.3-0.6-0.5-0.8c-0.1-0.1-0.1-0.3-0.1-0.4L28,4.3
	c0.1-0.2,0-0.4-0.2-0.5l-1.4-0.8C26.4,3,26.1,3,26,3.1l-0.4,0.5c-0.1,0.1-0.2,0.2-0.4,0.1c-0.2,0-0.3,0-0.5,0c-0.2,0-0.3,0-0.5,0
	c-0.1,0-0.3,0-0.4-0.1l-0.4-0.5C23.5,3,23.2,3,23.1,3.1l-1.4,0.8c-0.2,0.1-0.2,0.3-0.2,0.5l0.2,0.6c0.1,0.1,0,0.3-0.1,0.4
	c-0.2,0.2-0.3,0.5-0.5,0.8c-0.1,0.1-0.2,0.2-0.3,0.2l-0.6,0.1c-0.2,0-0.3,0.2-0.3,0.4v1.6c0,0.2,0.1,0.4,0.3,0.4L21,8.9
	c0.1,0,0.3,0.1,0.3,0.2c0.1,0.3,0.3,0.6,0.5,0.8c0.1,0.1,0.1,0.3,0.1,0.4l-0.2,0.6c-0.1,0.2,0,0.4,0.2,0.5l1.4,0.8
	c0.2,0.1,0.4,0.1,0.5-0.1l0.4-0.5c0.1-0.1,0.2-0.2,0.4-0.1c0.2,0,0.3,0,0.5,0c0.2,0,0.3,0,0.5,0c0.1,0,0.3,0,0.4,0.1L26,12
	c0.1,0.2,0.3,0.2,0.5,0.1l1.4-0.8c0.2-0.1,0.2-0.3,0.2-0.5l-0.2-0.6c-0.1-0.1,0-0.3,0.1-0.4c0.2-0.2,0.3-0.5,0.5-0.8
	c0.1-0.1,0.2-0.2,0.3-0.2l0.6-0.1c0.2,0,0.3-0.2,0.3-0.4V6.8C29.6,6.6,29.5,6.5,29.3,6.4z M24.8,9.1c-0.8,0-1.5-0.7-1.5-1.5
	s0.7-1.5,1.5-1.5s1.5,0.7,1.5,1.5S25.6,9.1,24.8,9.1z"/>
<polygon class="st1" points="17.9,7.7 17.9,13.2 12.6,13.2 12.6,24.4 17.9,24.4 17.9,30 3.1,30 3.1,24.4 7.8,24.4 7.8,13.2 
	3.1,13.2 3.1,7.7 "/>
<line class="st2" x1="10.3" y1="26.2" x2="10.3" y2="29.5"/>
<line class="st2" x1="10.3" y1="21.3" x2="10.3" y2="24.6"/>
<line class="st2" x1="10.3" y1="16.7" x2="10.3" y2="20"/>
<line class="st2" x1="10.3" y1="11.8" x2="10.3" y2="15.1"/>
<line class="st2" x1="10.3" y1="7.3" x2="10.3" y2="10.5"/>
<polygon class="st3" points="13,7.2 8,7.2 10.4,3.1 "/>
<line class="st2" x1="16.3" y1="18.3" x2="13" y2="18.3"/>
<line class="st2" x1="20.7" y1="18.3" x2="17.4" y2="18.3"/>
<polygon class="st3" points="20.6,15.8 20.6,20.8 24.8,18.4 "/>
<path class="st4" d="M22.3,29.1L23,26l3.8-0.2L23,25.5l-0.7-3.1l6.6,3.3L22.3,29.1z"/>
</svg>
